# xmcd
#
# Track frame offsets:
#	183
#	17283
#	35865
#	49473
#	64795
#	82065
#	93620
#	110140
#	121503
#	139385
#	154560
#	170268
#	187743
#	201998
#	216823
#	232175
#
# Disc length: 3346
#
# Revision: 1
# Processed by: cddbd v1.5.1PL0 Copyright (c) Steve Scherf et al.
# Submitted via: EasyCDDAExtractor 4.5.0.2
# Normalized: r0:TDELIM( - )
#
DISCID=e30d1010
DTITLE=x - Das Beste Wunschkonzert
DYEAR=1988
DGENRE=Volksmusik und Schlager
TTITLE0=Jürgen Marcus - Eine neue Liebe ist wie ein neues Leben
TTITLE1=Ines Torelli - Gigi von Arosa
TTITLE2=Jürgen Marcus - Ein Lied zieht hinaus in die Welt
TTITLE3=Peter Reber - E Vogel ohni Flügel
TTITLE4=Alan Sorrenti - Tu sei l'unica donna per me
TTITLE5=Harlem Ramblers - Es wott es Fraueli z'Märit gha
TTITLE6=Santabarbara - Charly
TTITLE7=John Brack - Es Praliné
TTITLE8=Aneka - Japanese Boy
TTITLE9=Denny Christian - Rosamunde
TTITLE10=George Bakder Selection - Paloma Blanca
TTITLE11=Vicky Leandros - Theo, wir fahren nach Lodz
TTITLE12=Bata Illic - Michaela
TTITLE13=ABBA - I Do, I Do, I Do
TTITLE14=Toni Vescoli - Es Pfaeffli
TTITLE15=Adam and Eve - Wenn die Sonne erwacht in den Bergen
EXTD=CD von I.B.\n
EXTT0=
EXTT1=
EXTT2=
EXTT3=
EXTT4=
EXTT5=
EXTT6=
EXTT7=
EXTT8=
EXTT9=
EXTT10=
EXTT11=
EXTT12=
EXTT13=
EXTT14=
EXTT15=
PLAYORDER=
